<svg width="64" height="64" viewBox="0 0 64 64" fill="none" xmlns="http://www.w3.org/2000/svg">
  <defs>
    <linearGradient id="tile" x1="8" y1="8" x2="56" y2="56" gradientUnits="userSpaceOnUse">
      <stop stop-color="#1D2129"/>
      <stop offset="1" stop-color="#050608"/>
    </linearGradient>
    <linearGradient id="path" x1="16" y1="20" x2="48" y2="44" gradientUnits="userSpaceOnUse">
      <stop stop-color="#FFB454"/>
      <stop offset="0.48" stop-color="#28D7F5"/>
      <stop offset="1" stop-color="#9B7CFF"/>
    </linearGradient>
    <filter id="glow" x="2" y="2" width="60" height="60" color-interpolation-filters="sRGB" filterUnits="userSpaceOnUse">
      <feGaussianBlur stdDeviation="2.6" result="blur"/>
      <feColorMatrix in="blur" type="matrix" values="0 0 0 0 0.157 0 0 0 0 0.843 0 0 0 0 0.961 0 0 0 0.8 0"/>
      <feBlend in2="SourceGraphic" mode="screen"/>
    </filter>
  </defs>
  <rect x="4" y="4" width="56" height="56" rx="18" fill="url(#tile)"/>
  <rect x="5" y="5" width="54" height="54" rx="17" stroke="#F5F7FA" stroke-opacity="0.14" stroke-width="2"/>
  <g filter="url(#glow)">
    <path d="M17 40C26.5 40 25 24 32 24C39 24 37.5 40 47 40" stroke="url(#path)" stroke-width="6.5" stroke-linecap="round"/>
    <path d="M17 24C26.5 24 25 40 32 40C39 40 37.5 24 47 24" stroke="url(#path)" stroke-width="6.5" stroke-linecap="round" opacity="0.8"/>
    <circle cx="17" cy="24" r="6.5" fill="#FFB454"/>
    <circle cx="32" cy="32" r="7" fill="#28D7F5"/>
    <circle cx="47" cy="40" r="6.5" fill="#9B7CFF"/>
  </g>
</svg>
